# This file uses centimeters as units for non-parametric coordinates.

mtllib NO LEFT TURN.mtl
g default
v 5.904974 5.529948 -2.003448
v 5.756277 5.821781 -2.003448
v 5.524677 6.053381 -2.003448
v 5.232844 6.202077 -2.003448
v 4.909345 6.253314 -2.003448
v 4.585845 6.202077 -2.003448
v 4.294013 6.053381 -2.003448
v 4.062413 5.821781 -2.003448
v 3.913716 5.529948 -2.003448
v 3.862479 5.206449 -2.003448
v 3.913716 4.882949 -2.003448
v 4.062413 4.591116 -2.003448
v 4.294013 4.359517 -2.003448
v 4.585845 4.210820 -2.003448
v 4.909345 4.159583 -2.003448
v 5.232844 4.210820 -2.003448
v 5.524677 4.359517 -2.003448
v 5.756277 4.591116 -2.003448
v 5.904973 4.882949 -2.003448
v 5.956210 5.206449 -2.003448
v 5.904974 5.529948 -1.957512
v 5.756277 5.821781 -1.957512
v 5.524677 6.053381 -1.957512
v 5.232844 6.202077 -1.957512
v 4.909345 6.253314 -1.957512
v 4.585845 6.202077 -1.957512
v 4.294013 6.053381 -1.957512
v 4.062413 5.821781 -1.957512
v 3.913716 5.529948 -1.957512
v 3.862479 5.206449 -1.957512
v 3.913716 4.882949 -1.957512
v 4.062413 4.591116 -1.957512
v 4.294013 4.359517 -1.957512
v 4.585845 4.210820 -1.957512
v 4.909345 4.159583 -1.957512
v 5.232844 4.210820 -1.957512
v 5.524677 4.359517 -1.957512
v 5.756277 4.591116 -1.957512
v 5.904973 4.882949 -1.957512
v 5.956210 5.206449 -1.957512
v 4.909345 5.206449 -2.003448
vt 0.375000 0.312500
vt 0.387500 0.312500
vt 0.387500 0.688440
vt 0.375000 0.688440
vt 0.400000 0.312500
vt 0.400000 0.688440
vt 0.412500 0.312500
vt 0.412500 0.688440
vt 0.425000 0.312500
vt 0.425000 0.688440
vt 0.437500 0.312500
vt 0.437500 0.688440
vt 0.450000 0.312500
vt 0.450000 0.688440
vt 0.462500 0.312500
vt 0.462500 0.688440
vt 0.475000 0.312500
vt 0.475000 0.688440
vt 0.487500 0.312500
vt 0.487500 0.688440
vt 0.500000 0.312500
vt 0.500000 0.688440
vt 0.512500 0.312500
vt 0.512500 0.688440
vt 0.525000 0.312500
vt 0.525000 0.688440
vt 0.537500 0.312500
vt 0.537500 0.688440
vt 0.550000 0.312500
vt 0.550000 0.688440
vt 0.562500 0.312500
vt 0.562500 0.688440
vt 0.575000 0.312500
vt 0.575000 0.688440
vt 0.587500 0.312500
vt 0.587500 0.688440
vt 0.600000 0.312500
vt 0.600000 0.688440
vt 0.612500 0.312500
vt 0.612500 0.688440
vt 0.625000 0.312500
vt 0.625000 0.688440
vt 0.626409 0.064408
vt 0.648603 0.107966
vt 0.500000 0.150000
vt 0.591842 0.029841
vt 0.548284 0.007647
vt 0.500000 -0.000000
vt 0.451716 0.007647
vt 0.408159 0.029841
vt 0.373591 0.064409
vt 0.351397 0.107966
vt 0.343750 0.156250
vt 0.351397 0.204534
vt 0.373591 0.248091
vt 0.408159 0.282659
vt 0.451716 0.304853
vt 0.500000 0.312500
vt 0.548284 0.304853
vt 0.591841 0.282659
vt 0.626409 0.248091
vt 0.648603 0.204534
vt 0.656250 0.156250
vt 0.366710 0.419528
vt 0.363267 0.447125
vt 0.353277 0.472021
vt 0.337716 0.491779
vt 0.318108 0.504464
vt 0.296373 0.508835
vt 0.274638 0.504464
vt 0.255031 0.491779
vt 0.239470 0.472021
vt 0.229479 0.447125
vt 0.226037 0.419528
vt 0.229479 0.391930
vt 0.239470 0.367034
vt 0.255031 0.347276
vt 0.274638 0.334591
vt 0.296373 0.330220
vt 0.318108 0.334591
vt 0.337716 0.347276
vt 0.353277 0.367034
vt 0.363267 0.391930
vn 0.951057 0.309016 0.000000
vn 0.809017 0.587785 0.000000
vn 0.809017 0.587785 0.000000
vn 0.951057 0.309016 0.000000
vn 0.587784 0.809018 0.000000
vn 0.587784 0.809018 0.000000
vn 0.309016 0.951057 0.000000
vn 0.309016 0.951057 0.000000
vn -0.000001 1.000000 0.000000
vn -0.000001 1.000000 0.000000
vn -0.309016 0.951057 0.000000
vn -0.309016 0.951057 0.000000
vn -0.587785 0.809017 0.000000
vn -0.587785 0.809017 0.000000
vn -0.809017 0.587785 0.000000
vn -0.809017 0.587785 0.000000
vn -0.951056 0.309017 0.000000
vn -0.951056 0.309017 0.000000
vn -1.000000 0.000000 0.000000
vn -1.000000 0.000000 0.000000
vn -0.951056 -0.309017 0.000000
vn -0.951056 -0.309017 0.000000
vn -0.809017 -0.587785 0.000000
vn -0.809017 -0.587785 0.000000
vn -0.587785 -0.809017 0.000000
vn -0.587785 -0.809017 0.000000
vn -0.309016 -0.951057 0.000000
vn -0.309016 -0.951057 0.000000
vn 0.000000 -1.000000 0.000000
vn 0.000000 -1.000000 0.000000
vn 0.309016 -0.951057 0.000000
vn 0.309016 -0.951057 0.000000
vn 0.587785 -0.809017 0.000000
vn 0.587785 -0.809017 0.000000
vn 0.809017 -0.587785 0.000000
vn 0.809017 -0.587785 0.000000
vn 0.951056 -0.309017 0.000000
vn 0.951056 -0.309017 0.000000
vn 1.000000 -0.000001 0.000000
vn 1.000000 -0.000001 0.000000
vn 0.000000 0.000000 -1.000000
vn 0.000000 0.000000 -1.000000
vn 0.000000 0.000000 -1.000000
vn 0.000000 0.000000 -1.000000
vn 0.000000 0.000000 -1.000000
vn 0.000000 0.000000 -1.000000
vn -0.000000 0.000000 -1.000000
vn -0.000000 0.000000 -1.000000
vn -0.000000 0.000000 -1.000000
vn -0.000000 0.000000 -1.000000
vn 0.000000 0.000000 -1.000000
vn -0.000000 0.000000 -1.000000
vn -0.000000 0.000000 -1.000000
vn 0.000000 0.000000 -1.000000
vn 0.000000 0.000000 -1.000000
vn 0.000000 0.000000 -1.000000
vn 0.000000 0.000000 -1.000000
vn 0.000000 0.000000 -1.000000
vn 0.000000 0.000000 -1.000000
vn 0.000000 0.000000 -1.000000
vn 0.000000 0.000000 -1.000000
vn 0.000000 0.000000 1.000000
vn 0.000000 0.000000 1.000000
vn 0.000000 0.000000 1.000000
vn 0.000000 0.000000 1.000000
vn 0.000000 0.000000 1.000000
vn 0.000000 0.000000 1.000000
vn 0.000000 0.000000 1.000000
vn 0.000000 0.000000 1.000000
vn 0.000000 0.000000 1.000000
vn 0.000000 0.000000 1.000000
vn 0.000000 0.000000 1.000000
vn 0.000000 0.000000 1.000000
vn 0.000000 0.000000 1.000000
vn 0.000000 0.000000 1.000000
vn 0.000000 0.000000 1.000000
vn 0.000000 0.000000 1.000000
vn 0.000000 0.000000 1.000000
vn 0.000000 0.000000 1.000000
vn 0.000000 0.000000 1.000000
vn 0.000000 0.000000 1.000000
s 1
g polySurface12 group2_pasted__pCylinder2_pasted__polySurface1
usemtl initialShadingGroup
f 1/1/1 2/2/2 22/3/3 21/4/4
f 2/2/2 3/5/5 23/6/6 22/3/3
f 3/5/5 4/7/7 24/8/8 23/6/6
f 4/7/7 5/9/9 25/10/10 24/8/8
f 5/9/9 6/11/11 26/12/12 25/10/10
f 6/11/11 7/13/13 27/14/14 26/12/12
f 7/13/13 8/15/15 28/16/16 27/14/14
f 8/15/15 9/17/17 29/18/18 28/16/16
f 9/17/17 10/19/19 30/20/20 29/18/18
f 10/19/19 11/21/21 31/22/22 30/20/20
f 11/21/21 12/23/23 32/24/24 31/22/22
f 12/23/23 13/25/25 33/26/26 32/24/24
f 13/25/25 14/27/27 34/28/28 33/26/26
f 14/27/27 15/29/29 35/30/30 34/28/28
f 15/29/29 16/31/31 36/32/32 35/30/30
f 16/31/31 17/33/33 37/34/34 36/32/32
f 17/33/33 18/35/35 38/36/36 37/34/34
f 18/35/35 19/37/37 39/38/38 38/36/36
f 19/37/37 20/39/39 40/40/40 39/38/38
f 20/39/39 1/41/1 21/42/4 40/40/40
s 2
f 2/43/41 1/44/42 41/45/43
f 3/46/44 2/43/41 41/45/43
f 4/47/45 3/46/44 41/45/43
f 5/48/46 4/47/45 41/45/43
f 6/49/47 5/48/46 41/45/43
f 7/50/48 6/49/47 41/45/43
f 8/51/49 7/50/48 41/45/43
f 9/52/50 8/51/49 41/45/43
f 10/53/51 9/52/50 41/45/43
f 11/54/52 10/53/51 41/45/43
f 12/55/53 11/54/52 41/45/43
f 13/56/54 12/55/53 41/45/43
f 14/57/55 13/56/54 41/45/43
f 15/58/56 14/57/55 41/45/43
f 16/59/57 15/58/56 41/45/43
f 17/60/58 16/59/57 41/45/43
f 18/61/59 17/60/58 41/45/43
f 19/62/60 18/61/59 41/45/43
f 20/63/61 19/62/60 41/45/43
f 1/44/42 20/63/61 41/45/43
s off
usemtl pasted__lambert4SG1
f 40/64/62 21/65/63 22/66/64 23/67/65 24/68/66 25/69/67 26/70/68 27/71/69 28/72/70 29/73/71 30/74/72 31/75/73 32/76/74 33/77/75 34/78/76 35/79/77 36/80/78 37/81/79 38/82/80 39/83/81
g default
v 5.020510 -0.947542 -2.096369
v 5.009220 -0.947542 -2.118037
v 4.991636 -0.947542 -2.135233
v 4.969479 -0.947542 -2.146273
v 4.944917 -0.947542 -2.150078
v 4.920356 -0.947542 -2.146273
v 4.898199 -0.947542 -2.135233
v 4.880614 -0.947542 -2.118037
v 4.869325 -0.947542 -2.096369
v 4.865435 -0.947542 -2.072350
v 4.869325 -0.947542 -2.048330
v 4.880614 -0.947542 -2.026662
v 4.898199 -0.947542 -2.009466
v 4.920356 -0.947542 -1.998426
v 4.944917 -0.947542 -1.994621
v 4.969479 -0.947542 -1.998426
v 4.991636 -0.947542 -2.009466
v 5.009220 -0.947542 -2.026662
v 5.020510 -0.947542 -2.048330
v 5.024400 -0.947542 -2.072350
v 5.020510 5.669898 -2.096369
v 5.009220 5.669898 -2.118037
v 4.991636 5.669898 -2.135233
v 4.969479 5.669898 -2.146273
v 4.944917 5.669898 -2.150078
v 4.920356 5.669898 -2.146273
v 4.898199 5.669898 -2.135233
v 4.880614 5.669898 -2.118037
v 4.869325 5.669898 -2.096369
v 4.865435 5.669898 -2.072350
v 4.869325 5.669898 -2.048330
v 4.880614 5.669898 -2.026662
v 4.898199 5.669898 -2.009466
v 4.920356 5.669898 -1.998426
v 4.944917 5.669898 -1.994621
v 4.969479 5.669898 -1.998426
v 4.991636 5.669898 -2.009466
v 5.009220 5.669898 -2.026662
v 5.020510 5.669898 -2.048330
v 5.024400 5.669898 -2.072350
v 4.944917 -0.947542 -2.072350
v 4.944917 5.669898 -2.072350
vt 0.375000 0.312500
vt 0.387500 0.312500
vt 0.387500 0.688440
vt 0.375000 0.688440
vt 0.400000 0.312500
vt 0.400000 0.688440
vt 0.412500 0.312500
vt 0.412500 0.688440
vt 0.425000 0.312500
vt 0.425000 0.688440
vt 0.437500 0.312500
vt 0.437500 0.688440
vt 0.450000 0.312500
vt 0.450000 0.688440
vt 0.462500 0.312500
vt 0.462500 0.688440
vt 0.475000 0.312500
vt 0.475000 0.688440
vt 0.487500 0.312500
vt 0.487500 0.688440
vt 0.500000 0.312500
vt 0.500000 0.688440
vt 0.512500 0.312500
vt 0.512500 0.688440
vt 0.525000 0.312500
vt 0.525000 0.688440
vt 0.537500 0.312500
vt 0.537500 0.688440
vt 0.550000 0.312500
vt 0.550000 0.688440
vt 0.562500 0.312500
vt 0.562500 0.688440
vt 0.575000 0.312500
vt 0.575000 0.688440
vt 0.587500 0.312500
vt 0.587500 0.688440
vt 0.600000 0.312500
vt 0.600000 0.688440
vt 0.612500 0.312500
vt 0.612500 0.688440
vt 0.625000 0.312500
vt 0.625000 0.688440
vt 0.626409 0.064408
vt 0.648603 0.107966
vt 0.500000 0.150000
vt 0.591842 0.029841
vt 0.548284 0.007647
vt 0.500000 -0.000000
vt 0.451716 0.007647
vt 0.408159 0.029841
vt 0.373591 0.064409
vt 0.351397 0.107966
vt 0.343750 0.156250
vt 0.351397 0.204534
vt 0.373591 0.248091
vt 0.408159 0.282659
vt 0.451716 0.304853
vt 0.500000 0.312500
vt 0.548284 0.304853
vt 0.591841 0.282659
vt 0.626409 0.248091
vt 0.648603 0.204534
vt 0.656250 0.156250
vt 0.648603 0.892034
vt 0.626409 0.935591
vt 0.500000 0.837500
vt 0.591841 0.970159
vt 0.548284 0.992353
vt 0.500000 1.000000
vt 0.451716 0.992353
vt 0.408159 0.970159
vt 0.373591 0.935591
vt 0.351397 0.892034
vt 0.343750 0.843750
vt 0.351397 0.795466
vt 0.373591 0.751909
vt 0.408159 0.717341
vt 0.451716 0.695147
vt 0.500000 0.687500
vt 0.548284 0.695147
vt 0.591842 0.717341
vt 0.626409 0.751908
vt 0.648603 0.795466
vt 0.656250 0.843750
vn 0.948992 0.000000 -0.315301
vn 0.802713 0.000000 -0.596366
vn 0.802713 0.000000 -0.596366
vn 0.948992 0.000000 -0.315301
vn 0.579193 0.000000 -0.815190
vn 0.579193 0.000000 -0.815190
vn 0.302829 0.000000 -0.953045
vn 0.302829 0.000000 -0.953045
vn 0.000000 0.000000 -1.000000
vn 0.000000 0.000000 -1.000000
vn -0.302831 0.000000 -0.953044
vn -0.302831 0.000000 -0.953044
vn -0.579193 0.000000 -0.815190
vn -0.579193 0.000000 -0.815190
vn -0.802710 0.000000 -0.596369
vn -0.802710 0.000000 -0.596369
vn -0.948992 0.000000 -0.315301
vn -0.948992 0.000000 -0.315301
vn -1.000000 0.000000 0.000000
vn -1.000000 0.000000 0.000000
vn -0.948991 0.000000 0.315302
vn -0.948991 0.000000 0.315302
vn -0.802710 0.000000 0.596369
vn -0.802710 0.000000 0.596369
vn -0.579193 0.000000 0.815190
vn -0.579193 0.000000 0.815190
vn -0.302831 0.000000 0.953044
vn -0.302831 0.000000 0.953044
vn 0.000000 0.000000 1.000000
vn 0.000000 0.000000 1.000000
vn 0.302831 0.000000 0.953044
vn 0.302831 0.000000 0.953044
vn 0.579193 0.000000 0.815190
vn 0.579193 0.000000 0.815190
vn 0.802710 0.000000 0.596369
vn 0.802710 0.000000 0.596369
vn 0.948991 0.000000 0.315302
vn 0.948991 0.000000 0.315302
vn 1.000000 0.000000 0.000000
vn 1.000000 0.000000 0.000000
vn 0.000000 -1.000000 -0.000002
vn 0.000000 -1.000000 -0.000002
vn 0.000000 -1.000000 0.000000
vn 0.000000 -1.000000 0.000000
vn 0.000000 -1.000000 0.000000
vn 0.000000 -1.000000 0.000000
vn 0.000000 -1.000000 0.000000
vn 0.000000 -1.000000 0.000000
vn 0.000000 -1.000000 0.000000
vn 0.000000 -1.000000 0.000000
vn 0.000000 -1.000000 0.000000
vn 0.000000 -1.000000 0.000002
vn 0.000000 -1.000000 0.000002
vn 0.000000 -1.000000 0.000000
vn 0.000000 -1.000000 0.000000
vn 0.000000 -1.000000 0.000000
vn 0.000000 -1.000000 0.000000
vn 0.000000 -1.000000 0.000000
vn 0.000000 -1.000000 0.000000
vn 0.000000 -1.000000 0.000000
vn 0.000000 -1.000000 0.000000
vn 0.000000 1.000000 -0.000016
vn 0.000000 1.000000 0.000000
vn 0.000000 1.000000 0.000000
vn 0.000000 1.000000 0.000000
vn 0.000000 1.000000 0.000000
vn 0.000000 1.000000 0.000000
vn 0.000000 1.000000 0.000000
vn 0.000000 1.000000 0.000000
vn 0.000000 1.000000 0.000000
vn 0.000000 1.000000 -0.000016
vn 0.000000 1.000000 0.000000
vn 0.000000 1.000000 0.000016
vn 0.000000 1.000000 0.000000
vn 0.000000 1.000000 0.000000
vn 0.000000 1.000000 0.000000
vn 0.000000 1.000000 0.000000
vn 0.000000 1.000000 0.000000
vn 0.000000 1.000000 0.000000
vn 0.000000 1.000000 0.000000
vn 0.000000 1.000000 0.000016
vn 0.000000 1.000000 0.000000
s 1
g group2_pasted__pCylinder2_pasted__polySurface1 polySurface11
usemtl initialShadingGroup
f 42/84/82 43/85/83 63/86/84 62/87/85
f 43/85/83 44/88/86 64/89/87 63/86/84
f 44/88/86 45/90/88 65/91/89 64/89/87
f 45/90/88 46/92/90 66/93/91 65/91/89
f 46/92/90 47/94/92 67/95/93 66/93/91
f 47/94/92 48/96/94 68/97/95 67/95/93
f 48/96/94 49/98/96 69/99/97 68/97/95
f 49/98/96 50/100/98 70/101/99 69/99/97
f 50/100/98 51/102/100 71/103/101 70/101/99
f 51/102/100 52/104/102 72/105/103 71/103/101
f 52/104/102 53/106/104 73/107/105 72/105/103
f 53/106/104 54/108/106 74/109/107 73/107/105
f 54/108/106 55/110/108 75/111/109 74/109/107
f 55/110/108 56/112/110 76/113/111 75/111/109
f 56/112/110 57/114/112 77/115/113 76/113/111
f 57/114/112 58/116/114 78/117/115 77/115/113
f 58/116/114 59/118/116 79/119/117 78/117/115
f 59/118/116 60/120/118 80/121/119 79/119/117
f 60/120/118 61/122/120 81/123/121 80/121/119
f 61/122/120 42/124/82 62/125/85 81/123/121
s 2
f 43/126/122 42/127/123 82/128/124
f 44/129/125 43/126/122 82/128/124
f 45/130/126 44/129/125 82/128/124
f 46/131/127 45/130/126 82/128/124
f 47/132/128 46/131/127 82/128/124
f 48/133/129 47/132/128 82/128/124
f 49/134/130 48/133/129 82/128/124
f 50/135/131 49/134/130 82/128/124
f 51/136/132 50/135/131 82/128/124
f 52/137/133 51/136/132 82/128/124
f 53/138/134 52/137/133 82/128/124
f 54/139/135 53/138/134 82/128/124
f 55/140/136 54/139/135 82/128/124
f 56/141/137 55/140/136 82/128/124
f 57/142/138 56/141/137 82/128/124
f 58/143/139 57/142/138 82/128/124
f 59/144/140 58/143/139 82/128/124
f 60/145/141 59/144/140 82/128/124
f 61/146/142 60/145/141 82/128/124
f 42/127/123 61/146/142 82/128/124
s 3
f 62/147/143 63/148/144 83/149/145
f 63/148/144 64/150/146 83/149/145
f 64/150/146 65/151/147 83/149/145
f 65/151/147 66/152/148 83/149/145
f 66/152/148 67/153/149 83/149/145
f 67/153/149 68/154/150 83/149/145
f 68/154/150 69/155/151 83/149/145
f 69/155/151 70/156/152 83/149/145
f 70/156/152 71/157/153 83/149/145
f 71/157/153 72/158/154 83/149/145
f 72/158/154 73/159/155 83/149/145
f 73/159/155 74/160/156 83/149/145
f 74/160/156 75/161/157 83/149/145
f 75/161/157 76/162/158 83/149/145
f 76/162/158 77/163/159 83/149/145
f 77/163/159 78/164/160 83/149/145
f 78/164/160 79/165/161 83/149/145
f 79/165/161 80/166/162 83/149/145
f 80/166/162 81/167/163 83/149/145
f 81/167/163 62/147/143 83/149/145
