# This file uses centimeters as units for non-parametric coordinates.

mtllib wooden box.mtl
g default
v -2.521867 0.191132 2.521867
v 2.521867 0.191132 2.521867
v -2.521867 5.234867 2.521867
v 2.521867 5.234867 2.521867
v -2.521867 5.234867 -2.521867
v 2.521867 5.234867 -2.521867
v -2.521867 0.191132 -2.521867
v 2.521867 0.191132 -2.521867
vt 1.000000 0.000000
vt 1.000000 1.000000
vt 0.000000 1.000000
vt 0.000000 0.000000
vt 1.000000 0.000000
vt 1.000000 1.000000
vt 1.000000 0.000000
vt 1.000000 1.000000
vt -0.000000 1.000000
vt -0.000000 0.000000
vt 0.000000 0.000000
vt 1.000000 0.000000
vt 0.000000 0.000000
vt 1.000000 0.000000
vt 1.000000 -0.000000
vt 1.000000 1.000000
vt -0.000000 1.000000
vt -0.000000 -0.000000
vt 1.000000 1.000000
vt 0.000000 1.000000
vt 0.000000 1.000000
vt 0.000000 -0.000000
vt 1.000000 1.000000
vt 0.000000 1.000000
vn 0.000000 0.000000 1.000000
vn 0.000000 0.000000 1.000000
vn 0.000000 0.000000 1.000000
vn 0.000000 0.000000 1.000000
vn 0.000000 1.000000 0.000000
vn 0.000000 1.000000 0.000000
vn 0.000000 1.000000 0.000000
vn 0.000000 1.000000 0.000000
vn 0.000000 0.000000 -1.000000
vn 0.000000 0.000000 -1.000000
vn 0.000000 0.000000 -1.000000
vn 0.000000 0.000000 -1.000000
vn 0.000000 -1.000000 0.000000
vn 0.000000 -1.000000 0.000000
vn 0.000000 -1.000000 0.000000
vn 0.000000 -1.000000 0.000000
vn 1.000000 0.000000 0.000000
vn 1.000000 0.000000 0.000000
vn 1.000000 0.000000 0.000000
vn 1.000000 0.000000 0.000000
vn -1.000000 0.000000 0.000000
vn -1.000000 0.000000 0.000000
vn -1.000000 0.000000 0.000000
vn -1.000000 0.000000 0.000000
s off
g pCube1
usemtl lambert2SG
f 1/1/1 2/2/2 4/3/3 3/4/4
f 3/15/5 4/16/6 6/17/7 5/18/8
f 5/5/9 6/6/10 8/21/11 7/22/12
f 7/7/13 8/8/14 2/9/15 1/10/16
f 2/11/17 8/12/18 6/19/19 4/20/20
f 7/13/21 1/14/22 3/23/23 5/24/24
